<svg xmlns="http://www.w3.org/2000/svg" version="1.1" xmlns:xlink="http://www.w3.org/1999/xlink" xmlns:svgjs="http://svgjs.dev/svgjs" width="1500" height="291" viewBox="0 0 1500 291"><g transform="matrix(1,0,0,1,-0.9090909090909918,-0.27372853767971606)"><svg viewBox="0 0 396 77" data-background-color="#ffffff" preserveAspectRatio="xMidYMid meet" height="291" width="1500" xmlns="http://www.w3.org/2000/svg" xmlns:xlink="http://www.w3.org/1999/xlink"><g id="tight-bounds" transform="matrix(1,0,0,1,0.2400000000000091,0.07242988797710836)"><svg viewBox="0 0 395.52 76.85514022404578" height="76.85514022404578" width="395.52"><g><svg viewBox="0 0 524.4520368779977 101.90846186044939" height="76.85514022404578" width="395.52"><g transform="matrix(1,0,0,1,128.93203687799775,22.33677826927193)"><svg viewBox="0 0 395.52 57.23490532190553" height="57.23490532190553" width="395.52"><g id="textblocktransform"><svg viewBox="0 0 395.52 57.23490532190553" height="57.23490532190553" width="395.52" id="textblock"><g><svg viewBox="0 0 395.52 57.23490532190553" height="57.23490532190553" width="395.52"><g transform="matrix(1,0,0,1,0,0)"><svg width="395.52" viewBox="4.95 -35.55 250.84 36.3" height="57.23490532190553" data-palette-color="#0052cc"><g class="wordmark-text-0" data-fill-palette-color="primary" id="text-0"><path d="M33.05-0.05L4.95-0.05 4.95-34.85 6.9-34.85 31.2-11.2 31.2-34.85 33.05-34.85 33.05-0.05ZM55.5-35.55Q59.4-35.55 62.7-33.63 66-31.7 67.92-28.4 69.85-25.1 69.85-21.2L69.85-21.2 69.85-13.6Q69.85-9.7 67.92-6.4 66-3.1 62.7-1.18 59.4 0.75 55.5 0.75L55.5 0.75Q51.6 0.75 48.3-1.18 45-3.1 43.07-6.4 41.15-9.7 41.15-13.6L41.15-13.6 41.15-21.2Q41.15-25.1 43.07-28.4 45-31.7 48.3-33.63 51.6-35.55 55.5-35.55L55.5-35.55ZM43-13.6Q43-10.2 44.67-7.33 46.35-4.45 49.22-2.78 52.1-1.1 55.5-1.1L55.5-1.1Q58.9-1.1 61.77-2.78 64.65-4.45 66.32-7.33 68-10.2 68-13.6L68-13.6 68-21.2Q68-24.6 66.32-27.48 64.65-30.35 61.77-32.02 58.9-33.7 55.5-33.7L55.5-33.7Q52.1-33.7 49.22-32.02 46.35-30.35 44.67-27.48 43-24.6 43-21.2L43-21.2 43-13.6ZM78.45-34.8L106.55-34.8 106.55-32.95 93.4-32.95 93.4 0 91.59 0 91.59-32.95 78.45-32.95 78.45-34.8ZM133.99-13.9L133.99-26 124.19-26 124.19-34.8 143.09-34.8 143.09-14.15Q143.09-9.5 141.24-6.13 139.39-2.75 136.17-1 132.94 0.75 128.99 0.75L128.99 0.75Q125.19 0.75 121.97-1.15 118.74-3.05 116.84-6.28 114.94-9.5 114.94-13.3L114.94-13.3 124.04-13.3Q124.04-11 125.37-9.45 126.69-7.9 128.94-7.9L128.94-7.9Q131.34-7.9 132.67-9.43 133.99-10.95 133.99-13.9L133.99-13.9ZM155.24-34.8L177.79-34.8 177.79-32.95 167.39-32.95 167.39-1.85 177.79-1.85 177.79 0 155.24 0 155.24-1.85 165.59-1.85 165.59-32.95 155.24-32.95 155.24-34.8ZM211.04-33.65Q214.04-32.25 215.76-29.5 217.49-26.75 217.49-23.4L217.49-23.4Q217.49-19.5 215.11-16.43 212.74-13.35 209.04-12.35L209.04-12.35 217.89 0 215.69 0 207.14-12 205.54-11.95 192.99-11.95 192.99 0 191.14 0 191.14-34.8 204.39-34.8Q206.59-34.8 208.16-34.52 209.74-34.25 211.04-33.65L211.04-33.65ZM192.99-13.8L206.04-13.8Q208.64-13.8 210.84-15.1 213.04-16.4 214.34-18.6 215.64-20.8 215.64-23.4L215.64-23.4Q215.64-26.3 214.11-28.65 212.59-31 209.89-32.15L209.89-32.15Q207.94-32.95 204.39-32.95L204.39-32.95 192.99-32.95 192.99-13.8ZM225.24 0L239.54-34.8 241.49-34.8 255.79 0 253.79 0 249.09-11.5 231.94-11.5 227.19 0 225.24 0ZM240.49-32.4L232.69-13.3 248.34-13.3 240.49-32.4Z" fill="#0052cc" data-fill-palette-color="primary"></path></g></svg></g></svg></g></svg></g></svg></g><g><svg viewBox="0 0 101.90846186044939 101.90846186044939" height="101.90846186044939" width="101.90846186044939"><g><svg></svg></g><g id="icon-0"><svg viewBox="0 0 101.90846186044939 101.90846186044939" height="101.90846186044939" width="101.90846186044939"><g><path d="M0 50.954c0-28.141 22.813-50.954 50.954-50.954 28.141 0 50.954 22.813 50.954 50.954 0 28.141-22.813 50.954-50.954 50.954-28.141 0-50.954-22.813-50.954-50.954zM50.954 96.747c25.291 0 45.793-20.502 45.793-45.793 0-25.291-20.502-45.793-45.793-45.792-25.291 0-45.793 20.502-45.792 45.792 0 25.291 20.502 45.793 45.792 45.793z" data-fill-palette-color="accent" fill="#0052cc" stroke="transparent"></path></g><g transform="matrix(1,0,0,1,31.27928855589599,25.14176710360326)"><svg viewBox="0 0 39.34988474865741 51.62492765324287" height="51.62492765324287" width="39.34988474865741"><g><svg xmlns="http://www.w3.org/2000/svg" xmlns:xlink="http://www.w3.org/1999/xlink" version="1.1" x="0" y="0" viewBox="11.763437805506856 1.1607935442098043 67.86803723350438 89.03920645579021" style="enable-background:new 0 0 91 91;" xml:space="preserve" height="51.62492765324287" width="39.34988474865741" class="icon-dxe-0" data-fill-palette-color="accent" id="dxe-0"><g fill="#0052cc" data-fill-palette-color="accent"><path d="M21.5 65.1C18.4 66.5 16.7 70.7 15.8 73.8 14.4 78.2 13.6 84.5 15.9 88.7 17 90.7 20 89.7 20 87.6 20 83.8 19 80.4 19.9 76.5 20.4 74.1 21.3 72 22.6 70 23.7 71.7 25.4 72.9 27.5 73.3 31.1 74 35 72.3 38.1 70.6 41.4 68.7 44.4 66.1 46.9 63.2 49.6 60.1 51.6 56.4 54.3 53.4 55.3 52.3 57.4 50.4 59 51.6S59 56.7 58.5 58.1C57 62.2 54.6 65.8 51.6 69 45.1 75.9 36.6 79.3 28.4 83.5 26.8 84.3 27.9 86.7 29.6 86.3 34.4 85.1 39.2 83.2 43.6 80.7 46.5 83.8 51.9 85.2 55.8 85.9 58.2 86.3 59.3 82.6 56.8 82.2 54.6 81.8 52.3 81.3 50.2 80.6 48.9 80.2 47.7 79.5 46.5 79 49 77.3 51.3 75.5 53.4 73.5 54.2 74 55 74.4 55.9 74.8 57.5 75.5 60 76.4 61.5 75.3 62.4 74.7 62.7 73.4 61.8 72.6 60.6 71.5 58.8 71.6 57.3 71.2 56.8 71.1 57.9 70.8 58.9 70.3 60.5 69.5 62 68.6 63.5 67.7 64.3 68.7 65.3 69.5 66 70.7 67.2 72.6 67.5 74.8 67.6 77 67.8 80.8 66.7 85 67.7 88.7 68.3 90.7 71.2 90.7 71.7 88.7 72.5 86.1 72.1 83.2 72 80.5 72 77.9 71.9 75.1 71.2 72.6 70.5 70.2 68.5 67 65.9 66.2 68.6 64.2 71.1 61.9 73.2 59.2 77.2 54 78.9 47.3 79.4 40.9 80.6 27.7 77.3 14.3 65.6 6.8 54.6-0.3 39.8-0.5 28.2 5.1 16.4 10.9 12 24.9 11.8 37.2 11.5 45.6 12.9 60.1 21.5 65.1M39.2 63.7C38.7 64.1 37.3 65.1 35.5 66 35.5 65.4 31.3 59 30.4 56.1 29.9 54.5 28.9 49.1 32 49.4 33.8 49.6 35.9 54.3 36.8 55.8 38.1 58 38.9 60.5 40.6 62.5 40.1 62.9 39.7 63.3 39.2 63.7M26 11.6C30 7.9 36.6 6 42 5.6 47.7 5.2 53.7 6.2 58.9 8.6 63.5 10.7 67.7 14.1 70.3 18.4 73.4 23.4 74 29.3 74.1 35 74.2 41.3 73.3 48.5 69.9 53.9 67.9 57.1 64.8 60 61.3 62V61.9C62.7 58.8 64.6 54.2 63.6 50.8 62.7 47.7 59.6 46.2 56.5 46.5 52.6 47 50.2 50.3 48.2 53.2 46.7 55.3 45.1 57.4 43.4 59.4 42.6 55.6 40.2 51.2 38.3 48.4 36.1 45 32.7 42.7 28.7 44.9 19.6 49.7 26.5 62.5 31 67.9L31.1 68C28.6 68.8 26.5 68.7 26.5 66.2 26.5 66 26.6 65 26.2 64.7 19.3 59.1 17.1 51 16.4 42.4 15.5 31.7 17.6 19.3 26 11.6" fill="#0052cc" data-fill-palette-color="accent"></path><path d="M34.2 36.4C35.2 34.5 34.8 32.4 34.9 30.3 35 28.4 35.2 26.4 34.7 24.5S31.3 22.1 30.3 23.9C29.3 25.8 29.1 27.9 28.9 30 28.7 32.2 28.3 34.3 29.3 36.3 30.3 38.2 33.3 38.2 34.2 36.4" fill="#0052cc" data-fill-palette-color="accent"></path><path d="M59.1 36.4C60.1 34.5 59.7 32.4 59.8 30.3 59.9 28.4 60.1 26.4 59.6 24.5S56.2 22.1 55.2 23.9C54.2 25.8 54 27.9 53.8 30 53.6 32.2 53.2 34.3 54.2 36.3 55.1 38.2 58.1 38.2 59.1 36.4" fill="#0052cc" data-fill-palette-color="accent"></path></g></svg></g></svg></g></svg></g></svg></g></svg></g><defs></defs></svg><rect width="395.52" height="76.85514022404578" fill="none" stroke="none" visibility="hidden"></rect></g></svg></g></svg>