<svg xmlns="http://www.w3.org/2000/svg" version="1.0" width="250.000000pt" height="238.000000pt" viewBox="0 0 250.000000 238.000000" preserveAspectRatio="xMidYMid meet">

<g transform="translate(0.000000,238.000000) scale(0.100000,-0.100000)" fill="#0052cc" stroke="none">
<path d="M1067 2080 c-301 -54 -556 -250 -682 -524 -53 -113 -75 -207 -82 -336 -13 -264 67 -484 244 -670 121 -127 240 -203 403 -255 73 -23 107 -28 240 -32 141 -4 164 -2 251 20 322 83 566 324 661 654 20 67 23 101 23 243 0 153 -2 171 -29 255 -34 108 -63 167 -128 262 -119 173 -315 308 -526 365 -86 23 -294 33 -375 18z m373 -110 c41 -12 115 -42 165 -68 74 -38 108 -64 191 -146 89 -90 106 -112 152 -206 75 -153 87 -206 87 -385 0 -130 -3 -160 -24 -225 -94 -301 -314 -504 -625 -575 -80 -19 -236 -21 -323 -5 -309 55 -562 293 -649 610 -28 100 -26 320 4 423 75 262 272 471 525 558 46 16 107 33 137 38 86 16 273 5 360 -19z" fill="#0052cc"/>
<path d="M1065 1610 c-131 -52 -198 -179 -197 -376 0 -121 19 -189 64 -235 l31 -30 -21 -22 c-47 -51 -68 -205 -31 -228 22 -13 33 7 30 60 -2 53 14 131 28 131 4 0 23 -7 41 -16 26 -14 39 -14 69 -5 51 15 111 60 157 117 62 77 103 116 114 109 32 -20 -16 -132 -85 -198 -24 -23 -86 -64 -137 -92 -98 -53 -126 -83 -68 -71 18 3 56 16 83 29 l50 22 46 -22 c60 -29 95 -33 99 -11 2 12 -7 18 -37 23 -21 3 -47 12 -56 19 -16 11 -14 15 15 39 24 20 38 26 54 20 33 -11 69 -9 73 3 2 7 -9 16 -24 21 l-28 10 33 17 c18 9 37 14 43 10 20 -12 32 -60 33 -136 2 -82 6 -94 31 -85 11 5 15 22 15 70 0 87 -8 122 -35 151 l-23 25 43 44 c66 69 88 138 89 272 1 98 -2 116 -25 165 -34 71 -89 126 -158 159 -77 36 -239 41 -316 11z m271 -41 c72 -27 135 -89 157 -154 22 -64 23 -215 1 -278 -14 -43 -99 -145 -111 -134 -2 2 1 16 7 31 27 71 2 126 -56 126 -29 0 -41 -9 -86 -64 l-52 -63 -31 60 c-52 105 -126 124 -161 42 -17 -42 -9 -85 30 -152 17 -29 21 -45 13 -50 -6 -3 -16 2 -21 12 -6 10 -23 33 -39 50 -58 69 -72 118 -72 255 0 122 1 127 33 193 35 71 74 106 149 133 60 21 173 18 239 -7z m-211 -506 l37 -67 -23 -19 c-22 -18 -24 -18 -37 0 -25 32 -52 97 -52 126 0 20 5 27 19 27 13 0 31 -21 56 -67z" fill="#0052cc"/>
<path d="M1050 1385 c-12 -32 -13 -95 -1 -113 5 -8 17 -12 27 -10 16 3 19 13 19 73 0 58 -3 70 -17 73 -12 2 -21 -6 -28 -23z" fill="#0052cc"/>
<path d="M1316 1402 c-11 -18 -18 -92 -12 -117 5 -20 12 -26 29 -23 20 3 22 8 22 73 0 57 -3 70 -17 73 -9 2 -19 -1 -22 -6z" fill="#0052cc"/>
</g>
</svg>